<svg xmlns="http://www.w3.org/2000/svg" viewBox="0 0 24 24" fill="none">
  <defs>
    <linearGradient id="cp-l" x1="4" y1="6" x2="14" y2="22" gradientUnits="userSpaceOnUse">
      <stop offset="0" stop-color="#70C4AB"/>
      <stop offset="1" stop-color="#6E78CB"/>
    </linearGradient>
    <linearGradient id="cp-r" x1="10" y1="6" x2="20" y2="22" gradientUnits="userSpaceOnUse">
      <stop offset="0" stop-color="#6D9FEB"/>
      <stop offset="1" stop-color="#B270C8"/>
    </linearGradient>
  </defs>
  <path d="M12 4C8.5 4 5.5 6.8 4 10.5S3 16.5 4.5 19.5C6 22.5 9 24 11.5 24c1.2 0 2-.8 2-2V4h-1.5z" fill="url(#cp-l)" opacity="0.9"/>
  <path d="M12 4c3.5 0 6.5 2.8 8 6.5s1.5 6 0 9C18.5 22.5 15.5 24 13 24c-1.2 0-2-.8-2-2V4h1z" fill="url(#cp-r)" opacity="0.9"/>
</svg>
